<?xml version="1.0" encoding="UTF-8" standalone="no"?><!DOCTYPE svg PUBLIC "-//W3C//DTD SVG 1.1//EN" "http://www.w3.org/Graphics/SVG/1.1/DTD/svg11.dtd"><!-- Generated by graphviz version 2.40.1 (20161225.0304)
 --><!-- Title: %0 Pages: 1 --><svg xmlns="http://www.w3.org/2000/svg" xmlns:xlink="http://www.w3.org/1999/xlink" width="246pt" height="438pt" viewBox="0.00 0.00 246.46 437.60">
<g id="graph0" class="graph" transform="scale(1 1) rotate(0) translate(4 433.6)">
<title>%0</title>
<polygon fill="#ffffff" stroke="transparent" points="-4,4 -4,-433.6 242.4553,-433.6 242.4553,4 -4,4"/>
<!-- 2 -->
<g id="node1" class="node">
<title>2</title>
<ellipse fill="none" stroke="#000000" cx="122.2035" cy="-378" rx="65.0907" ry="18"/>
<text text-anchor="middle" x="122.2035" y="-373.8" font-family="Times,serif" font-size="14.00" fill="#000000">2 : var x = 2.0</text>
<text text-anchor="middle" x="50.1899" y="-417" font-family="Times,serif" font-size="14.00" fill="#000000">{}</text>
<text text-anchor="middle" x="50.1899" y="-400.2" font-family="Times,serif" font-size="14.00" fill="#000000">{}</text>
</g>
<!-- 3 -->
<g id="node2" class="node">
<title>3</title>
<ellipse fill="none" stroke="#000000" cx="122.2035" cy="-306" rx="65.0907" ry="18"/>
<text text-anchor="middle" x="122.2035" y="-301.8" font-family="Times,serif" font-size="14.00" fill="#000000">3 : var y = 4.0</text>
<text text-anchor="middle" x="46.6899" y="-345" font-family="Times,serif" font-size="14.00" fill="#000000">{}</text>
<text text-anchor="middle" x="46.6899" y="-328.2" font-family="Times,serif" font-size="14.00" fill="#000000">{y}</text>
</g>
<!-- 2&#45;&gt;3 -->
<g id="edge1" class="edge">
<title>2-&gt;3</title>
<path fill="none" stroke="#000000" d="M122.2035,-359.8314C122.2035,-352.131 122.2035,-342.9743 122.2035,-334.4166"/>
<polygon fill="#000000" stroke="#000000" points="125.7036,-334.4132 122.2035,-324.4133 118.7036,-334.4133 125.7036,-334.4132"/>
</g>
<!-- 4 -->
<g id="node3" class="node">
<title>4</title>
<ellipse fill="none" stroke="#000000" cx="122.2035" cy="-234" rx="65.0907" ry="18"/>
<text text-anchor="middle" x="122.2035" y="-229.8" font-family="Times,serif" font-size="14.00" fill="#000000">4 : var x = 1.0</text>
<text text-anchor="middle" x="39.6899" y="-273" font-family="Times,serif" font-size="14.00" fill="#000000">{y}</text>
<text text-anchor="middle" x="39.6899" y="-256.2" font-family="Times,serif" font-size="14.00" fill="#000000">{x, y}</text>
</g>
<!-- 3&#45;&gt;4 -->
<g id="edge2" class="edge">
<title>3-&gt;4</title>
<path fill="none" stroke="#000000" d="M122.2035,-287.8314C122.2035,-280.131 122.2035,-270.9743 122.2035,-262.4166"/>
<polygon fill="#000000" stroke="#000000" points="125.7036,-262.4132 122.2035,-252.4133 118.7036,-262.4133 125.7036,-262.4132"/>
</g>
<!-- 5 -->
<g id="node4" class="node">
<title>5</title>
<ellipse fill="none" stroke="#000000" cx="122.2035" cy="-162" rx="43.117" ry="18"/>
<text text-anchor="middle" x="122.2035" y="-157.8" font-family="Times,serif" font-size="14.00" fill="#000000">5 : y &gt; x</text>
<text text-anchor="middle" x="61.6768" y="-201" font-family="Times,serif" font-size="14.00" fill="#000000">{x, y}</text>
<text text-anchor="middle" x="61.6768" y="-184.2" font-family="Times,serif" font-size="14.00" fill="#000000">{y}</text>
</g>
<!-- 4&#45;&gt;5 -->
<g id="edge3" class="edge">
<title>4-&gt;5</title>
<path fill="none" stroke="#000000" d="M122.2035,-215.8314C122.2035,-208.131 122.2035,-198.9743 122.2035,-190.4166"/>
<polygon fill="#000000" stroke="#000000" points="125.7036,-190.4132 122.2035,-180.4133 118.7036,-190.4133 125.7036,-190.4132"/>
</g>
<!-- 6 -->
<g id="node5" class="node">
<title>6</title>
<ellipse fill="none" stroke="#000000" cx="63.2035" cy="-90" rx="42.5339" ry="18"/>
<text text-anchor="middle" x="63.2035" y="-85.8" font-family="Times,serif" font-size="14.00" fill="#000000">6 : z = y</text>
<text text-anchor="middle" x="10.2186" y="-129" font-family="Times,serif" font-size="14.00" fill="#000000">{y}</text>
<text text-anchor="middle" x="10.2186" y="-112.2" font-family="Times,serif" font-size="14.00" fill="#000000">{z}</text>
</g>
<!-- 5&#45;&gt;6 -->
<g id="edge7" class="edge">
<title>5-&gt;6</title>
<path fill="none" stroke="#000000" d="M108.2214,-144.937C100.9801,-136.1003 91.995,-125.1354 83.961,-115.3311"/>
<polygon fill="#000000" stroke="#000000" points="86.5406,-112.9571 77.4952,-107.4407 81.1263,-117.3939 86.5406,-112.9571"/>
</g>
<!-- 7 -->
<g id="node6" class="node">
<title>7</title>
<ellipse fill="none" stroke="#000000" cx="181.2035" cy="-90" rx="57.0046" ry="18"/>
<text text-anchor="middle" x="181.2035" y="-85.8" font-family="Times,serif" font-size="14.00" fill="#000000">7 : z = y * y</text>
<text text-anchor="middle" x="113.7332" y="-129" font-family="Times,serif" font-size="14.00" fill="#000000">{y}</text>
<text text-anchor="middle" x="113.7332" y="-112.2" font-family="Times,serif" font-size="14.00" fill="#000000">{z}</text>
</g>
<!-- 5&#45;&gt;7 -->
<g id="edge6" class="edge">
<title>5-&gt;7</title>
<path fill="none" stroke="#000000" d="M136.1857,-144.937C143.4269,-136.1003 152.412,-125.1354 160.4461,-115.3311"/>
<polygon fill="#000000" stroke="#000000" points="163.2808,-117.3939 166.9119,-107.4407 157.8664,-112.9571 163.2808,-117.3939"/>
</g>
<!-- 8 -->
<g id="node7" class="node">
<title>8</title>
<ellipse fill="none" stroke="#000000" cx="122.2035" cy="-18" rx="42.5339" ry="18"/>
<text text-anchor="middle" x="122.2035" y="-13.8" font-family="Times,serif" font-size="14.00" fill="#000000">8 : x = z</text>
<text text-anchor="middle" x="69.6113" y="-57" font-family="Times,serif" font-size="14.00" fill="#000000">{z}</text>
<text text-anchor="middle" x="69.6113" y="-40.2" font-family="Times,serif" font-size="14.00" fill="#000000">{}</text>
</g>
<!-- 6&#45;&gt;8 -->
<g id="edge4" class="edge">
<title>6-&gt;8</title>
<path fill="none" stroke="#000000" d="M77.1857,-72.937C84.4269,-64.1003 93.412,-53.1354 101.4461,-43.3311"/>
<polygon fill="#000000" stroke="#000000" points="104.2808,-45.3939 107.9119,-35.4407 98.8664,-40.9571 104.2808,-45.3939"/>
</g>
<!-- 7&#45;&gt;8 -->
<g id="edge5" class="edge">
<title>7-&gt;8</title>
<path fill="none" stroke="#000000" d="M166.6193,-72.2022C159.3679,-63.3531 150.4848,-52.5127 142.5735,-42.8583"/>
<polygon fill="#000000" stroke="#000000" points="145.2592,-40.6136 136.2138,-35.0972 139.8448,-45.0504 145.2592,-40.6136"/>
</g>
</g>
</svg>