<?xml version="1.0" encoding="UTF-8" standalone="no"?><!DOCTYPE svg PUBLIC "-//W3C//DTD SVG 1.1//EN" "http://www.w3.org/Graphics/SVG/1.1/DTD/svg11.dtd"><!-- Generated by graphviz version 2.40.1 (20161225.0304)
 --><!-- Title: %0 Pages: 1 --><svg xmlns="http://www.w3.org/2000/svg" xmlns:xlink="http://www.w3.org/1999/xlink" width="396pt" height="454pt" viewBox="0.00 0.00 395.71 453.60">
<g id="graph0" class="graph" transform="scale(1 1) rotate(0) translate(4 449.6)">
<title>%0</title>
<polygon fill="#ffffff" stroke="transparent" points="-4,4 -4,-449.6 391.7149,-449.6 391.7149,4 -4,4"/>
<g id="clust1" class="cluster">
<title>cluster_4</title>
<polygon fill="none" stroke="#000000" points="109.5783,-8 109.5783,-276 281.5783,-276 281.5783,-8 109.5783,-8"/>
</g>
<!-- 2 -->
<g id="node1" class="node">
<title>2</title>
<ellipse fill="none" stroke="#000000" cx="222.5783" cy="-394" rx="65.0907" ry="18"/>
<text text-anchor="middle" x="222.5783" y="-389.8" font-family="Times,serif" font-size="14.00" fill="#000000">2 : var x = 5.0</text>
<text text-anchor="middle" x="124.0515" y="-433" font-family="Times,serif" font-size="14.00" fill="#000000">(x,-1) (y,-1)</text>
<text text-anchor="middle" x="124.0515" y="-416.2" font-family="Times,serif" font-size="14.00" fill="#000000">(x,2) (y,-1)</text>
</g>
<!-- 3 -->
<g id="node2" class="node">
<title>3</title>
<ellipse fill="none" stroke="#000000" cx="222.5783" cy="-322" rx="65.0907" ry="18"/>
<text text-anchor="middle" x="222.5783" y="-317.8" font-family="Times,serif" font-size="14.00" fill="#000000">3 : var y = 1.0</text>
<text text-anchor="middle" x="126.3818" y="-361" font-family="Times,serif" font-size="14.00" fill="#000000">(x,2) (y,-1)</text>
<text text-anchor="middle" x="126.3818" y="-344.2" font-family="Times,serif" font-size="14.00" fill="#000000">(x,2) (y,3)</text>
</g>
<!-- 2&#45;&gt;3 -->
<g id="edge1" class="edge">
<title>2-&gt;3</title>
<path fill="none" stroke="#000000" d="M222.5783,-375.8314C222.5783,-368.131 222.5783,-358.9743 222.5783,-350.4166"/>
<polygon fill="#000000" stroke="#000000" points="226.0784,-350.4132 222.5783,-340.4133 219.0784,-350.4133 226.0784,-350.4132"/>
</g>
<!-- 4 -->
<g id="node3" class="node">
<title>4</title>
<ellipse fill="none" stroke="#000000" cx="222.5783" cy="-250" rx="50.6016" ry="18"/>
<text text-anchor="middle" x="222.5783" y="-245.8" font-family="Times,serif" font-size="14.00" fill="#000000">4 : x &gt; 1.0</text>
<text text-anchor="middle" x="113.1351" y="-289" font-family="Times,serif" font-size="14.00" fill="#000000">(x,2) (x,9) (y,3) (y,7)</text>
<text text-anchor="middle" x="113.1351" y="-272.2" font-family="Times,serif" font-size="14.00" fill="#000000">(x,2) (x,9) (y,3) (y,7)</text>
</g>
<!-- 3&#45;&gt;4 -->
<g id="edge2" class="edge">
<title>3-&gt;4</title>
<path fill="none" stroke="#000000" d="M222.5783,-303.8314C222.5783,-296.131 222.5783,-286.9743 222.5783,-278.4166"/>
<polygon fill="#000000" stroke="#000000" points="226.0784,-278.4132 222.5783,-268.4133 219.0784,-278.4133 226.0784,-278.4132"/>
</g>
<!-- 6 -->
<g id="node4" class="node">
<title>6</title>
<ellipse fill="none" stroke="#000000" cx="193.5783" cy="-178" rx="60.4162" ry="18"/>
<text text-anchor="middle" x="193.5783" y="-173.8" font-family="Times,serif" font-size="14.00" fill="#000000">6 : y &lt; 100.0</text>
<text text-anchor="middle" x="74.4782" y="-217" font-family="Times,serif" font-size="14.00" fill="#000000">(x,2) (x,9) (y,3) (y,7)</text>
<text text-anchor="middle" x="74.4782" y="-200.2" font-family="Times,serif" font-size="14.00" fill="#000000">(x,2) (x,9) (y,3) (y,7)</text>
</g>
<!-- 4&#45;&gt;6 -->
<g id="edge8" class="edge">
<title>4-&gt;6</title>
<path fill="none" stroke="#000000" d="M215.2604,-231.8314C212.0419,-223.8406 208.1918,-214.2819 204.6351,-205.4514"/>
<polygon fill="#000000" stroke="#000000" points="207.7761,-203.8816 200.7934,-195.9134 201.283,-206.4969 207.7761,-203.8816"/>
</g>
<!-- 10 -->
<g id="node7" class="node">
<title>10</title>
<ellipse fill="none" stroke="#000000" cx="339.5783" cy="-178" rx="48.2735" ry="18"/>
<text text-anchor="middle" x="339.5783" y="-173.8" font-family="Times,serif" font-size="14.00" fill="#000000">10 : x = y</text>
<text text-anchor="middle" x="232.5493" y="-217" font-family="Times,serif" font-size="14.00" fill="#000000">(x,2) (x,9) (y,3) (y,7)</text>
<text text-anchor="middle" x="232.5493" y="-200.2" font-family="Times,serif" font-size="14.00" fill="#000000">(x,10) (y,3) (y,7)</text>
</g>
<!-- 4&#45;&gt;10 -->
<g id="edge7" class="edge">
<title>4-&gt;10</title>
<path fill="none" stroke="#000000" d="M247.9656,-234.3771C264.8306,-223.9986 287.1705,-210.251 305.5674,-198.9298"/>
<polygon fill="#000000" stroke="#000000" points="307.5584,-201.8143 314.2406,-193.5924 303.8896,-195.8526 307.5584,-201.8143"/>
</g>
<!-- 7 -->
<g id="node5" class="node">
<title>7</title>
<ellipse fill="none" stroke="#000000" cx="175.5783" cy="-106" rx="57.5877" ry="18"/>
<text text-anchor="middle" x="175.5783" y="-101.8" font-family="Times,serif" font-size="14.00" fill="#000000">7 : y = x * y</text>
<text text-anchor="middle" x="58.8924" y="-145" font-family="Times,serif" font-size="14.00" fill="#000000">(x,2) (x,9) (y,3) (y,7)</text>
<text text-anchor="middle" x="58.8924" y="-128.2" font-family="Times,serif" font-size="14.00" fill="#000000">(x,2) (x,9) (y,7)</text>
</g>
<!-- 6&#45;&gt;7 -->
<g id="edge5" class="edge">
<title>6-&gt;7</title>
<path fill="none" stroke="#000000" d="M189.0361,-159.8314C187.0899,-152.0463 184.7715,-142.7729 182.612,-134.1347"/>
<polygon fill="#000000" stroke="#000000" points="186.0026,-133.2658 180.1816,-124.4133 179.2116,-134.9636 186.0026,-133.2658"/>
</g>
<!-- 9 -->
<g id="node6" class="node">
<title>9</title>
<ellipse fill="none" stroke="#000000" cx="210.5783" cy="-34" rx="63.3452" ry="18"/>
<text text-anchor="middle" x="210.5783" y="-29.8" font-family="Times,serif" font-size="14.00" fill="#000000">9 : x = x - 1.0</text>
<text text-anchor="middle" x="88.2634" y="-73" font-family="Times,serif" font-size="14.00" fill="#000000">(x,2) (x,9) (y,3) (y,7)</text>
<text text-anchor="middle" x="88.2634" y="-56.2" font-family="Times,serif" font-size="14.00" fill="#000000">(x,9) (y,3) (y,7)</text>
</g>
<!-- 6&#45;&gt;9 -->
<g id="edge4" class="edge">
<title>6-&gt;9</title>
<path fill="none" stroke="#000000" d="M215.2275,-160.9457C225.6265,-151.3473 237.0158,-138.4079 242.5783,-124 250.767,-102.7899 241.0066,-78.4846 230.1738,-60.4827"/>
<polygon fill="#000000" stroke="#000000" points="232.8643,-58.197 224.5006,-51.6932 226.983,-61.9932 232.8643,-58.197"/>
</g>
<!-- 7&#45;&gt;9 -->
<g id="edge3" class="edge">
<title>7-&gt;9</title>
<path fill="none" stroke="#000000" d="M184.23,-88.2022C188.2264,-79.981 193.0584,-70.041 197.4873,-60.9301"/>
<polygon fill="#000000" stroke="#000000" points="200.6807,-62.3664 201.9048,-51.8425 194.3851,-59.306 200.6807,-62.3664"/>
</g>
<!-- 9&#45;&gt;4 -->
<g id="edge6" class="edge">
<title>9-&gt;4</title>
<path fill="none" stroke="#000000" d="M226.026,-51.834C233.9188,-61.8437 243.0084,-74.9218 248.5783,-88 261.3519,-117.9925 259.4528,-127.5509 262.5783,-160 264.1123,-175.9263 267.5927,-180.8061 262.5783,-196 259.1778,-206.3036 252.9691,-216.2475 246.4412,-224.7333"/>
<polygon fill="#000000" stroke="#000000" points="243.5452,-222.7447 239.8992,-232.6924 248.9529,-227.1896 243.5452,-222.7447"/>
</g>
</g>
</svg>