<?xml version="1.0" encoding="UTF-8" standalone="no"?><!DOCTYPE svg PUBLIC "-//W3C//DTD SVG 1.1//EN" "http://www.w3.org/Graphics/SVG/1.1/DTD/svg11.dtd"><!-- Generated by graphviz version 2.40.1 (20161225.0304)
 --><!-- Title: %0 Pages: 1 --><svg xmlns="http://www.w3.org/2000/svg" xmlns:xlink="http://www.w3.org/1999/xlink" width="308pt" height="438pt" viewBox="0.00 0.00 307.77 437.60">
<g id="graph0" class="graph" transform="scale(1 1) rotate(0) translate(4 433.6)">
<title>%0</title>
<polygon fill="#ffffff" stroke="transparent" points="-4,4 -4,-433.6 303.7748,-433.6 303.7748,4 -4,4"/>
<!-- 6 -->
<g id="node1" class="node">
<title>6</title>
<ellipse fill="none" stroke="#000000" cx="146.0084" cy="-162" rx="50.0181" ry="18"/>
<text text-anchor="middle" x="146.0084" y="-157.8" font-family="Times,serif" font-size="14.00" fill="#000000">6 : z = 0.0</text>
<text text-anchor="middle" x="47.9997" y="-201" font-family="Times,serif" font-size="14.00" fill="#000000">(x,3) (y,-1) (z,-1)</text>
<text text-anchor="middle" x="47.9997" y="-184.2" font-family="Times,serif" font-size="14.00" fill="#000000">(x,3) (y,-1) (z,6)</text>
</g>
<!-- 9 -->
<g id="node5" class="node">
<title>9</title>
<ellipse fill="none" stroke="#000000" cx="201.0084" cy="-90" rx="43.117" ry="18"/>
<text text-anchor="middle" x="201.0084" y="-85.8" font-family="Times,serif" font-size="14.00" fill="#000000">9 : y = x</text>
<text text-anchor="middle" x="97.2631" y="-129" font-family="Times,serif" font-size="14.00" fill="#000000">(x,3) (y,-1) (z,6) (z,8)</text>
<text text-anchor="middle" x="97.2631" y="-112.2" font-family="Times,serif" font-size="14.00" fill="#000000">(x,3) (y,9) (z,6) (z,8)</text>
</g>
<!-- 6&#45;&gt;9 -->
<g id="edge3" class="edge">
<title>6-&gt;9</title>
<path fill="none" stroke="#000000" d="M159.3224,-144.5708C166.0106,-135.8153 174.2404,-125.0418 181.6158,-115.3867"/>
<polygon fill="#000000" stroke="#000000" points="184.528,-117.3401 187.8171,-107.2687 178.9653,-113.0908 184.528,-117.3401"/>
</g>
<!-- 8 -->
<g id="node2" class="node">
<title>8</title>
<ellipse fill="none" stroke="#000000" cx="257.0084" cy="-162" rx="42.5339" ry="18"/>
<text text-anchor="middle" x="257.0084" y="-157.8" font-family="Times,serif" font-size="14.00" fill="#000000">8 : z = x</text>
<text text-anchor="middle" x="166.2424" y="-201" font-family="Times,serif" font-size="14.00" fill="#000000">(x,3) (y,-1) (z,-1)</text>
<text text-anchor="middle" x="166.2424" y="-184.2" font-family="Times,serif" font-size="14.00" fill="#000000">(x,3) (y,-1) (z,8)</text>
</g>
<!-- 8&#45;&gt;9 -->
<g id="edge4" class="edge">
<title>8-&gt;9</title>
<path fill="none" stroke="#000000" d="M243.4524,-144.5708C236.6426,-135.8153 228.2631,-125.0418 220.7536,-115.3867"/>
<polygon fill="#000000" stroke="#000000" points="223.3418,-113.0134 214.4396,-107.2687 217.8163,-117.311 223.3418,-113.0134"/>
</g>
<!-- 10 -->
<g id="node3" class="node">
<title>10</title>
<ellipse fill="none" stroke="#000000" cx="201.0084" cy="-18" rx="62.8952" ry="18"/>
<text text-anchor="middle" x="201.0084" y="-13.8" font-family="Times,serif" font-size="14.00" fill="#000000">10 : x = y + z</text>
<text text-anchor="middle" x="76.7041" y="-57" font-family="Times,serif" font-size="14.00" fill="#000000">(x,3) (y,9) (z,6) (z,8)</text>
<text text-anchor="middle" x="76.7041" y="-40.2" font-family="Times,serif" font-size="14.00" fill="#000000">(x,10) (y,9) (z,6) (z,8)</text>
</g>
<!-- 4 -->
<g id="node4" class="node">
<title>4</title>
<ellipse fill="none" stroke="#000000" cx="201.0084" cy="-234" rx="48.4247" ry="18"/>
<text text-anchor="middle" x="201.0084" y="-229.8" font-family="Times,serif" font-size="14.00" fill="#000000">4 : z == x</text>
<text text-anchor="middle" x="104.7969" y="-273" font-family="Times,serif" font-size="14.00" fill="#000000">(x,3) (y,-1) (z,-1)</text>
<text text-anchor="middle" x="104.7969" y="-256.2" font-family="Times,serif" font-size="14.00" fill="#000000">(x,3) (y,-1) (z,-1)</text>
</g>
<!-- 4&#45;&gt;6 -->
<g id="edge6" class="edge">
<title>4-&gt;6</title>
<path fill="none" stroke="#000000" d="M187.6945,-216.5708C181.0555,-207.8797 172.8974,-197.2001 165.5639,-187.5998"/>
<polygon fill="#000000" stroke="#000000" points="168.2422,-185.3403 159.3904,-179.5182 162.6795,-189.5896 168.2422,-185.3403"/>
</g>
<!-- 4&#45;&gt;8 -->
<g id="edge5" class="edge">
<title>4-&gt;8</title>
<path fill="none" stroke="#000000" d="M214.5645,-216.5708C221.3743,-207.8153 229.7537,-197.0418 237.2632,-187.3867"/>
<polygon fill="#000000" stroke="#000000" points="240.2005,-189.311 243.5772,-179.2687 234.6751,-185.0134 240.2005,-189.311"/>
</g>
<!-- 9&#45;&gt;10 -->
<g id="edge7" class="edge">
<title>9-&gt;10</title>
<path fill="none" stroke="#000000" d="M201.0084,-71.8314C201.0084,-64.131 201.0084,-54.9743 201.0084,-46.4166"/>
<polygon fill="#000000" stroke="#000000" points="204.5085,-46.4132 201.0084,-36.4133 197.5085,-46.4133 204.5085,-46.4132"/>
</g>
<!-- 2 -->
<g id="node6" class="node">
<title>2</title>
<ellipse fill="none" stroke="#000000" cx="201.0084" cy="-378" rx="50.6016" ry="18"/>
<text text-anchor="middle" x="201.0084" y="-373.8" font-family="Times,serif" font-size="14.00" fill="#000000">2 : x = 0.0</text>
<text text-anchor="middle" x="100.1276" y="-417" font-family="Times,serif" font-size="14.00" fill="#000000">(x,-1) (y,-1) (z,-1)</text>
<text text-anchor="middle" x="100.1276" y="-400.2" font-family="Times,serif" font-size="14.00" fill="#000000">(x,2) (y,-1) (z,-1)</text>
</g>
<!-- 3 -->
<g id="node7" class="node">
<title>3</title>
<ellipse fill="none" stroke="#000000" cx="201.0084" cy="-306" rx="50.6016" ry="18"/>
<text text-anchor="middle" x="201.0084" y="-301.8" font-family="Times,serif" font-size="14.00" fill="#000000">3 : x = 3.0</text>
<text text-anchor="middle" x="102.4579" y="-345" font-family="Times,serif" font-size="14.00" fill="#000000">(x,2) (y,-1) (z,-1)</text>
<text text-anchor="middle" x="102.4579" y="-328.2" font-family="Times,serif" font-size="14.00" fill="#000000">(x,3) (y,-1) (z,-1)</text>
</g>
<!-- 2&#45;&gt;3 -->
<g id="edge1" class="edge">
<title>2-&gt;3</title>
<path fill="none" stroke="#000000" d="M201.0084,-359.8314C201.0084,-352.131 201.0084,-342.9743 201.0084,-334.4166"/>
<polygon fill="#000000" stroke="#000000" points="204.5085,-334.4132 201.0084,-324.4133 197.5085,-334.4133 204.5085,-334.4132"/>
</g>
<!-- 3&#45;&gt;4 -->
<g id="edge2" class="edge">
<title>3-&gt;4</title>
<path fill="none" stroke="#000000" d="M201.0084,-287.8314C201.0084,-280.131 201.0084,-270.9743 201.0084,-262.4166"/>
<polygon fill="#000000" stroke="#000000" points="204.5085,-262.4132 201.0084,-252.4133 197.5085,-262.4133 204.5085,-262.4132"/>
</g>
</g>
</svg>