<?xml version="1.0" encoding="UTF-8" standalone="no"?><!DOCTYPE svg PUBLIC "-//W3C//DTD SVG 1.1//EN" "http://www.w3.org/Graphics/SVG/1.1/DTD/svg11.dtd"><!-- Generated by graphviz version 2.40.1 (20161225.0304)
 --><!-- Title: %0 Pages: 1 --><svg xmlns="http://www.w3.org/2000/svg" xmlns:xlink="http://www.w3.org/1999/xlink" width="374pt" height="238pt" viewBox="0.00 0.00 374.13 237.60">
<g id="graph0" class="graph" transform="scale(1 1) rotate(0) translate(4 233.6)">
<title>%0</title>
<polygon fill="#ffffff" stroke="transparent" points="-4,4 -4,-233.6 370.1291,-233.6 370.1291,4 -4,4"/>
<g id="clust1" class="cluster">
<title>cluster_4</title>
<polygon fill="none" stroke="#000000" points="92.5783,-8 92.5783,-204 254.5783,-204 254.5783,-8 92.5783,-8"/>
</g>
<!-- 6 -->
<g id="node1" class="node">
<title>6</title>
<ellipse fill="none" stroke="#000000" cx="175.5783" cy="-178" rx="57.5877" ry="18"/>
<text text-anchor="middle" x="175.5783" y="-173.8" font-family="Times,serif" font-size="14.00" fill="#000000">6 : y = x * y</text>
<text text-anchor="middle" x="58.8924" y="-217" font-family="Times,serif" font-size="14.00" fill="#000000">(x,2) (x,7) (y,3) (y,6)</text>
<text text-anchor="middle" x="58.8924" y="-200.2" font-family="Times,serif" font-size="14.00" fill="#000000">(x,2) (x,7) (y,6)</text>
</g>
<!-- 7 -->
<g id="node4" class="node">
<title>7</title>
<ellipse fill="none" stroke="#000000" cx="163.5783" cy="-106" rx="63.3452" ry="18"/>
<text text-anchor="middle" x="163.5783" y="-101.8" font-family="Times,serif" font-size="14.00" fill="#000000">7 : x = x - 1.0</text>
<text text-anchor="middle" x="56.424" y="-145" font-family="Times,serif" font-size="14.00" fill="#000000">(x,2) (x,7) (y,6)</text>
<text text-anchor="middle" x="56.424" y="-128.2" font-family="Times,serif" font-size="14.00" fill="#000000">(x,7) (y,6)</text>
</g>
<!-- 6&#45;&gt;7 -->
<g id="edge3" class="edge">
<title>6-&gt;7</title>
<path fill="none" stroke="#000000" d="M172.5502,-159.8314C171.2668,-152.131 169.7407,-142.9743 168.3144,-134.4166"/>
<polygon fill="#000000" stroke="#000000" points="171.7436,-133.7018 166.6472,-124.4133 164.8389,-134.8526 171.7436,-133.7018"/>
</g>
<!-- 3 -->
<g id="node2" class="node">
<title>3</title>
<ellipse fill="none" stroke="#000000" cx="315.5783" cy="-106" rx="50.6016" ry="18"/>
<text text-anchor="middle" x="315.5783" y="-101.8" font-family="Times,serif" font-size="14.00" fill="#000000">3 : y = 1.0</text>
<text text-anchor="middle" x="234.126" y="-145" font-family="Times,serif" font-size="14.00" fill="#000000">(x,2) (y,-1)</text>
<text text-anchor="middle" x="234.126" y="-128.2" font-family="Times,serif" font-size="14.00" fill="#000000">(x,2) (y,3)</text>
</g>
<!-- 4 -->
<g id="node5" class="node">
<title>4</title>
<ellipse fill="none" stroke="#000000" cx="195.5783" cy="-34" rx="50.6016" ry="18"/>
<text text-anchor="middle" x="195.5783" y="-29.8" font-family="Times,serif" font-size="14.00" fill="#000000">4 : x &gt; 1.0</text>
<text text-anchor="middle" x="86.1351" y="-73" font-family="Times,serif" font-size="14.00" fill="#000000">(x,2) (x,7) (y,3) (y,6)</text>
<text text-anchor="middle" x="86.1351" y="-56.2" font-family="Times,serif" font-size="14.00" fill="#000000">(x,2) (x,7) (y,3) (y,6)</text>
</g>
<!-- 3&#45;&gt;4 -->
<g id="edge2" class="edge">
<title>3-&gt;4</title>
<path fill="none" stroke="#000000" d="M289.5401,-90.3771C272.1639,-79.9514 249.1215,-66.1259 230.2043,-54.7756"/>
<polygon fill="#000000" stroke="#000000" points="231.9414,-51.7362 221.5657,-49.5924 228.3399,-57.7387 231.9414,-51.7362"/>
</g>
<!-- 2 -->
<g id="node3" class="node">
<title>2</title>
<ellipse fill="none" stroke="#000000" cx="315.5783" cy="-178" rx="50.6016" ry="18"/>
<text text-anchor="middle" x="315.5783" y="-173.8" font-family="Times,serif" font-size="14.00" fill="#000000">2 : x = 5.0</text>
<text text-anchor="middle" x="231.7957" y="-217" font-family="Times,serif" font-size="14.00" fill="#000000">(x,-1) (y,-1)</text>
<text text-anchor="middle" x="231.7957" y="-200.2" font-family="Times,serif" font-size="14.00" fill="#000000">(x,2) (y,-1)</text>
</g>
<!-- 2&#45;&gt;3 -->
<g id="edge1" class="edge">
<title>2-&gt;3</title>
<path fill="none" stroke="#000000" d="M315.5783,-159.8314C315.5783,-152.131 315.5783,-142.9743 315.5783,-134.4166"/>
<polygon fill="#000000" stroke="#000000" points="319.0784,-134.4132 315.5783,-124.4133 312.0784,-134.4133 319.0784,-134.4132"/>
</g>
<!-- 7&#45;&gt;4 -->
<g id="edge4" class="edge">
<title>7-&gt;4</title>
<path fill="none" stroke="#000000" d="M171.6533,-87.8314C175.2429,-79.7547 179.5445,-70.0761 183.5042,-61.1668"/>
<polygon fill="#000000" stroke="#000000" points="186.7537,-62.473 187.6168,-51.9134 180.357,-59.63 186.7537,-62.473"/>
</g>
<!-- 4&#45;&gt;6 -->
<g id="edge5" class="edge">
<title>4-&gt;6</title>
<path fill="none" stroke="#000000" d="M212.8992,-51.3076C221.5179,-61.1632 231.0443,-74.2619 235.5783,-88 240.5927,-103.1939 242.0877,-109.384 235.5783,-124 230.0897,-136.3239 220.2447,-147.0151 210.0957,-155.5589"/>
<polygon fill="#000000" stroke="#000000" points="207.6721,-153.0119 201.9687,-161.9407 211.9953,-158.5174 207.6721,-153.0119"/>
</g>
</g>
</svg>