<?xml version="1.0" encoding="UTF-8" standalone="no"?><!DOCTYPE svg PUBLIC "-//W3C//DTD SVG 1.1//EN" "http://www.w3.org/Graphics/SVG/1.1/DTD/svg11.dtd"><!-- Generated by graphviz version 2.40.1 (20161225.0304)
 --><!-- Title: %0 Pages: 1 --><svg xmlns="http://www.w3.org/2000/svg" xmlns:xlink="http://www.w3.org/1999/xlink" width="419pt" height="382pt" viewBox="0.00 0.00 419.29 381.60">
<g id="graph0" class="graph" transform="scale(1 1) rotate(0) translate(4 377.6)">
<title>%0</title>
<polygon fill="#ffffff" stroke="transparent" points="-4,4 -4,-377.6 415.2876,-377.6 415.2876,4 -4,4"/>
<g id="clust1" class="cluster">
<title>cluster_4</title>
<polygon fill="none" stroke="#000000" points="116.9925,-8 116.9925,-276 272.9925,-276 272.9925,-8 116.9925,-8"/>
</g>
<!-- 8 -->
<g id="node1" class="node">
<title>8</title>
<ellipse fill="none" stroke="#000000" cx="193.9925" cy="-250" rx="57.5877" ry="18"/>
<text text-anchor="middle" x="193.9925" y="-245.8" font-family="Times,serif" font-size="14.00" fill="#000000">8 : y = x * y</text>
<text text-anchor="middle" x="73.8066" y="-289" font-family="Times,serif" font-size="14.00" fill="#000000">(x,2) (x,10) (y,3) (y,8)</text>
<text text-anchor="middle" x="73.8066" y="-272.2" font-family="Times,serif" font-size="14.00" fill="#000000">(x,2) (x,10) (y,8)</text>
</g>
<!-- 4 -->
<g id="node2" class="node">
<title>4</title>
<ellipse fill="none" stroke="#000000" cx="213.9925" cy="-178" rx="50.6016" ry="18"/>
<text text-anchor="middle" x="213.9925" y="-173.8" font-family="Times,serif" font-size="14.00" fill="#000000">4 : x &gt; 1.0</text>
<text text-anchor="middle" x="101.0493" y="-217" font-family="Times,serif" font-size="14.00" fill="#000000">(x,2) (x,10) (y,3) (y,8)</text>
<text text-anchor="middle" x="101.0493" y="-200.2" font-family="Times,serif" font-size="14.00" fill="#000000">(x,2) (x,10) (y,3) (y,8)</text>
</g>
<!-- 8&#45;&gt;4 -->
<g id="edge3" class="edge">
<title>8-&gt;4</title>
<path fill="none" stroke="#000000" d="M199.0394,-231.8314C201.2352,-223.9266 203.8572,-214.4872 206.288,-205.7365"/>
<polygon fill="#000000" stroke="#000000" points="209.7124,-206.4854 209.0166,-195.9134 202.9678,-204.6118 209.7124,-206.4854"/>
</g>
<!-- 6 -->
<g id="node6" class="node">
<title>6</title>
<ellipse fill="none" stroke="#000000" cx="184.9925" cy="-106" rx="60.4162" ry="18"/>
<text text-anchor="middle" x="184.9925" y="-101.8" font-family="Times,serif" font-size="14.00" fill="#000000">6 : y &lt; 100.0</text>
<text text-anchor="middle" x="62.3924" y="-145" font-family="Times,serif" font-size="14.00" fill="#000000">(x,2) (x,10) (y,3) (y,8)</text>
<text text-anchor="middle" x="62.3924" y="-128.2" font-family="Times,serif" font-size="14.00" fill="#000000">(x,2) (x,10) (y,3) (y,8)</text>
</g>
<!-- 4&#45;&gt;6 -->
<g id="edge7" class="edge">
<title>4-&gt;6</title>
<path fill="none" stroke="#000000" d="M206.6746,-159.8314C203.4561,-151.8406 199.6061,-142.2819 196.0494,-133.4514"/>
<polygon fill="#000000" stroke="#000000" points="199.1904,-131.8816 192.2077,-123.9134 192.6973,-134.4969 199.1904,-131.8816"/>
</g>
<!-- 3 -->
<g id="node3" class="node">
<title>3</title>
<ellipse fill="none" stroke="#000000" cx="345.9925" cy="-250" rx="65.0907" ry="18"/>
<text text-anchor="middle" x="345.9925" y="-245.8" font-family="Times,serif" font-size="14.00" fill="#000000">3 : var y = 1.0</text>
<text text-anchor="middle" x="249.796" y="-289" font-family="Times,serif" font-size="14.00" fill="#000000">(x,2) (y,-1)</text>
<text text-anchor="middle" x="249.796" y="-272.2" font-family="Times,serif" font-size="14.00" fill="#000000">(x,2) (y,3)</text>
</g>
<!-- 3&#45;&gt;4 -->
<g id="edge2" class="edge">
<title>3-&gt;4</title>
<path fill="none" stroke="#000000" d="M316.3692,-233.8418C296.9024,-223.2236 271.2957,-209.2563 250.5619,-197.9469"/>
<polygon fill="#000000" stroke="#000000" points="252.1681,-194.8362 241.7131,-193.1203 248.816,-200.9815 252.1681,-194.8362"/>
</g>
<!-- 10 -->
<g id="node4" class="node">
<title>10</title>
<ellipse fill="none" stroke="#000000" cx="194.9925" cy="-34" rx="68.0029" ry="18"/>
<text text-anchor="middle" x="194.9925" y="-29.8" font-family="Times,serif" font-size="14.00" fill="#000000">10 : x = x - 1.0</text>
<text text-anchor="middle" x="64.3491" y="-73" font-family="Times,serif" font-size="14.00" fill="#000000">(x,2) (x,10) (y,3) (y,8)</text>
<text text-anchor="middle" x="64.3491" y="-56.2" font-family="Times,serif" font-size="14.00" fill="#000000">(x,10) (y,3) (y,8)</text>
</g>
<!-- 10&#45;&gt;4 -->
<g id="edge4" class="edge">
<title>10-&gt;4</title>
<path fill="none" stroke="#000000" d="M221.5688,-50.6164C233.8936,-59.932 247.2772,-72.7504 253.9925,-88 260.4408,-102.6431 259.007,-108.8061 253.9925,-124 250.5921,-134.3036 244.3833,-144.2475 237.8554,-152.7333"/>
<polygon fill="#000000" stroke="#000000" points="234.9594,-150.7447 231.3134,-160.6924 240.3671,-155.1896 234.9594,-150.7447"/>
</g>
<!-- 2 -->
<g id="node5" class="node">
<title>2</title>
<ellipse fill="none" stroke="#000000" cx="345.9925" cy="-322" rx="65.0907" ry="18"/>
<text text-anchor="middle" x="345.9925" y="-317.8" font-family="Times,serif" font-size="14.00" fill="#000000">2 : var x = 5.0</text>
<text text-anchor="middle" x="247.4657" y="-361" font-family="Times,serif" font-size="14.00" fill="#000000">(x,-1) (y,-1)</text>
<text text-anchor="middle" x="247.4657" y="-344.2" font-family="Times,serif" font-size="14.00" fill="#000000">(x,2) (y,-1)</text>
</g>
<!-- 2&#45;&gt;3 -->
<g id="edge1" class="edge">
<title>2-&gt;3</title>
<path fill="none" stroke="#000000" d="M345.9925,-303.8314C345.9925,-296.131 345.9925,-286.9743 345.9925,-278.4166"/>
<polygon fill="#000000" stroke="#000000" points="349.4926,-278.4132 345.9925,-268.4133 342.4926,-278.4133 349.4926,-278.4132"/>
</g>
<!-- 6&#45;&gt;8 -->
<g id="edge6" class="edge">
<title>6-&gt;8</title>
<path fill="none" stroke="#000000" d="M171.5207,-123.9347C164.827,-133.9739 157.4459,-147.0481 153.9925,-160 149.8705,-175.4599 148.9781,-180.8061 153.9925,-196 157.393,-206.3036 163.6018,-216.2475 170.1296,-224.7333"/>
<polygon fill="#000000" stroke="#000000" points="167.618,-227.1896 176.6717,-232.6924 173.0256,-222.7447 167.618,-227.1896"/>
</g>
<!-- 6&#45;&gt;10 -->
<g id="edge5" class="edge">
<title>6-&gt;10</title>
<path fill="none" stroke="#000000" d="M187.516,-87.8314C188.5855,-80.131 189.8572,-70.9743 191.0458,-62.4166"/>
<polygon fill="#000000" stroke="#000000" points="194.5261,-62.7997 192.4351,-52.4133 187.5926,-61.8367 194.5261,-62.7997"/>
</g>
</g>
</svg>