<?xml version="1.0" encoding="UTF-8" standalone="no"?><!DOCTYPE svg PUBLIC "-//W3C//DTD SVG 1.1//EN" "http://www.w3.org/Graphics/SVG/1.1/DTD/svg11.dtd"><!-- Generated by graphviz version 2.40.1 (20161225.0304)
 --><!-- Title: cs738_Script Pages: 1 --><svg xmlns="http://www.w3.org/2000/svg" xmlns:xlink="http://www.w3.org/1999/xlink" width="318pt" height="276pt" viewBox="0.00 0.00 317.90 276.00">
<g id="graph0" class="graph" transform="scale(1 1) rotate(0) translate(4 272)">
<title>cs738_Script</title>
<polygon fill="#ffffff" stroke="transparent" points="-4,4 -4,-272 313.9042,-272 313.9042,4 -4,4"/>
<g id="clust1" class="cluster">
<title>cluster_3</title>
<polygon fill="none" stroke="#000000" points="8,-8 8,-204 156,-204 156,-8 8,-8"/>
</g>
<!-- var ret = 1.0 -->
<g id="node1" class="node">
<title>var ret = 1.0</title>
<ellipse fill="none" stroke="#000000" cx="110" cy="-250" rx="58.1228" ry="18"/>
<text text-anchor="middle" x="110" y="-245.8" font-family="Times,serif" font-size="14.00" fill="#000000">var ret = 1.0</text>
</g>
<!-- n &gt; 0.0 -->
<g id="node2" class="node">
<title>n &gt; 0.0</title>
<ellipse fill="none" stroke="#000000" cx="110" cy="-178" rx="38.4215" ry="18"/>
<text text-anchor="middle" x="110" y="-173.8" font-family="Times,serif" font-size="14.00" fill="#000000">n &gt; 0.0</text>
</g>
<!-- var ret = 1.0&#45;&gt;n &gt; 0.0 -->
<g id="edge1" class="edge">
<title>var ret = 1.0-&gt;n &gt; 0.0</title>
<path fill="none" stroke="#000000" d="M110,-231.8314C110,-224.131 110,-214.9743 110,-206.4166"/>
<polygon fill="#000000" stroke="#000000" points="113.5001,-206.4132 110,-196.4133 106.5001,-206.4133 113.5001,-206.4132"/>
</g>
<!-- ret = ret * n -->
<g id="node3" class="node">
<title>ret = ret * n</title>
<ellipse fill="none" stroke="#000000" cx="72" cy="-106" rx="56.3331" ry="18"/>
<text text-anchor="middle" x="72" y="-101.8" font-family="Times,serif" font-size="14.00" fill="#000000">ret = ret * n</text>
</g>
<!-- n &gt; 0.0&#45;&gt;ret = ret * n -->
<g id="edge5" class="edge">
<title>n &gt; 0.0-&gt;ret = ret * n</title>
<path fill="none" stroke="#000000" d="M100.6067,-160.2022C96.2677,-151.981 91.0217,-142.041 86.2131,-132.9301"/>
<polygon fill="#000000" stroke="#000000" points="89.1799,-131.0527 81.4169,-123.8425 82.9892,-134.3201 89.1799,-131.0527"/>
</g>
<!-- console.log(ret) -->
<g id="node5" class="node">
<title>console.log(ret)</title>
<ellipse fill="none" stroke="#000000" cx="238" cy="-106" rx="71.8086" ry="18"/>
<text text-anchor="middle" x="238" y="-101.8" font-family="Times,serif" font-size="14.00" fill="#000000">console.log(ret)</text>
</g>
<!-- n &gt; 0.0&#45;&gt;console.log(ret) -->
<g id="edge4" class="edge">
<title>n &gt; 0.0-&gt;console.log(ret)</title>
<path fill="none" stroke="#000000" d="M134.6797,-164.1177C153.1139,-153.7484 178.6539,-139.3822 199.7285,-127.5277"/>
<polygon fill="#000000" stroke="#000000" points="201.4535,-130.5732 208.4534,-122.62 198.0217,-124.4721 201.4535,-130.5732"/>
</g>
<!-- ret = ret &#45; 1.0 -->
<g id="node4" class="node">
<title>ret = ret - 1.0</title>
<ellipse fill="none" stroke="#000000" cx="82" cy="-34" rx="61.5914" ry="18"/>
<text text-anchor="middle" x="82" y="-29.8" font-family="Times,serif" font-size="14.00" fill="#000000">ret = ret - 1.0</text>
</g>
<!-- ret = ret * n&#45;&gt;ret = ret &#45; 1.0 -->
<g id="edge2" class="edge">
<title>ret = ret * n-&gt;ret = ret - 1.0</title>
<path fill="none" stroke="#000000" d="M74.5234,-87.8314C75.5929,-80.131 76.8647,-70.9743 78.0532,-62.4166"/>
<polygon fill="#000000" stroke="#000000" points="81.5336,-62.7997 79.4426,-52.4133 74.6001,-61.8367 81.5336,-62.7997"/>
</g>
<!-- ret = ret &#45; 1.0&#45;&gt;n &gt; 0.0 -->
<g id="edge3" class="edge">
<title>ret = ret - 1.0-&gt;n &gt; 0.0</title>
<path fill="none" stroke="#000000" d="M106.527,-50.7564C118.1053,-60.1891 130.7351,-73.0694 137,-88 145.761,-108.8796 137.0839,-133.576 127.303,-151.8118"/>
<polygon fill="#000000" stroke="#000000" points="124.1384,-150.2935 122.1742,-160.7047 130.2022,-153.7907 124.1384,-150.2935"/>
</g>
</g>
</svg>