<?xml version="1.0" encoding="UTF-8" standalone="no"?><!DOCTYPE svg PUBLIC "-//W3C//DTD SVG 1.1//EN" "http://www.w3.org/Graphics/SVG/1.1/DTD/svg11.dtd"><!-- Generated by graphviz version 2.40.1 (20161225.0304)
 --><!-- Title: cs738_Script Pages: 1 --><svg xmlns="http://www.w3.org/2000/svg" xmlns:xlink="http://www.w3.org/1999/xlink" width="736pt" height="444pt" viewBox="0.00 0.00 735.57 444.00">
<g id="graph0" class="graph" transform="scale(1 1) rotate(0) translate(4 440)">
<title>cs738_Script</title>
<polygon fill="#ffffff" stroke="transparent" points="-4,4 -4,-440 731.5656,-440 731.5656,4 -4,4"/>
<g id="clust1" class="cluster">
<title>cluster_4</title>
<polygon fill="none" stroke="#000000" points="121.6381,-8 121.6381,-428 587.6381,-428 587.6381,-8 121.6381,-8"/>
</g>
<g id="clust2" class="cluster">
<title>cluster_8</title>
<polygon fill="none" stroke="#000000" points="345.6381,-152 345.6381,-420 579.6381,-420 579.6381,-152 345.6381,-152"/>
</g>
<!-- var i = 0.0 -->
<g id="node1" class="node">
<title>var i = 0.0</title>
<ellipse fill="none" stroke="#000000" cx="55.6381" cy="-322" rx="50.6199" ry="18"/>
<text text-anchor="middle" x="55.6381" y="-317.8" font-family="Times,serif" font-size="14.00" fill="#000000">var i = 0.0</text>
</g>
<!-- var j = 10.0 -->
<g id="node2" class="node">
<title>var j = 10.0</title>
<ellipse fill="none" stroke="#000000" cx="55.6381" cy="-250" rx="55.7765" ry="18"/>
<text text-anchor="middle" x="55.6381" y="-245.8" font-family="Times,serif" font-size="14.00" fill="#000000">var j = 10.0</text>
</g>
<!-- var i = 0.0&#45;&gt;var j = 10.0 -->
<g id="edge1" class="edge">
<title>var i = 0.0-&gt;var j = 10.0</title>
<path fill="none" stroke="#000000" d="M55.6381,-303.8314C55.6381,-296.131 55.6381,-286.9743 55.6381,-278.4166"/>
<polygon fill="#000000" stroke="#000000" points="59.1382,-278.4132 55.6381,-268.4133 52.1382,-278.4133 59.1382,-278.4132"/>
</g>
<!-- i &lt; 4.0 -->
<g id="node3" class="node">
<title>i &lt; 4.0</title>
<ellipse fill="none" stroke="#000000" cx="235.6381" cy="-178" rx="36.1309" ry="18"/>
<text text-anchor="middle" x="235.6381" y="-173.8" font-family="Times,serif" font-size="14.00" fill="#000000">i &lt; 4.0</text>
</g>
<!-- var j = 10.0&#45;&gt;i &lt; 4.0 -->
<g id="edge2" class="edge">
<title>var j = 10.0-&gt;i &lt; 4.0</title>
<path fill="none" stroke="#000000" d="M90.7712,-235.9468C121.6468,-223.5965 166.4537,-205.6738 198.0426,-193.0382"/>
<polygon fill="#000000" stroke="#000000" points="199.4068,-196.2622 207.3917,-189.2986 196.807,-189.7628 199.4068,-196.2622"/>
</g>
<!-- console.log(i) -->
<g id="node4" class="node">
<title>console.log(i)</title>
<ellipse fill="none" stroke="#000000" cx="228.6381" cy="-106" rx="64.3056" ry="18"/>
<text text-anchor="middle" x="228.6381" y="-101.8" font-family="Times,serif" font-size="14.00" fill="#000000">console.log(i)</text>
</g>
<!-- i &lt; 4.0&#45;&gt;console.log(i) -->
<g id="edge13" class="edge">
<title>i &lt; 4.0-&gt;console.log(i)</title>
<path fill="none" stroke="#000000" d="M233.8717,-159.8314C233.123,-152.131 232.2328,-142.9743 231.4008,-134.4166"/>
<polygon fill="#000000" stroke="#000000" points="234.8796,-134.0276 230.4283,-124.4133 227.9124,-134.7051 234.8796,-134.0276"/>
</g>
<!-- &lt;EmptyStmt&gt; -->
<g id="node12" class="node">
<title>&lt;EmptyStmt&gt;</title>
<ellipse fill="none" stroke="#000000" cx="661.6381" cy="-106" rx="65.8552" ry="18"/>
<text text-anchor="middle" x="661.6381" y="-101.8" font-family="Times,serif" font-size="14.00" fill="#000000">&lt;EmptyStmt&gt;</text>
</g>
<!-- i &lt; 4.0&#45;&gt;&lt;EmptyStmt&gt; -->
<g id="edge12" class="edge">
<title>i &lt; 4.0-&gt;&lt;EmptyStmt&gt;</title>
<path fill="none" stroke="#000000" d="M267.4156,-169.0677C288.3528,-163.4652 316.4532,-156.4798 341.6381,-152 451.716,-132.4198 481.671,-144.1939 591.6381,-124 596.0618,-123.1876 600.6191,-122.2499 605.1857,-121.2378"/>
<polygon fill="#000000" stroke="#000000" points="606.2011,-124.5952 615.1498,-118.9232 604.6172,-117.7767 606.2011,-124.5952"/>
</g>
<!-- i += 1.0 -->
<g id="node5" class="node">
<title>i += 1.0</title>
<ellipse fill="none" stroke="#000000" cx="199.6381" cy="-34" rx="41.5219" ry="18"/>
<text text-anchor="middle" x="199.6381" y="-29.8" font-family="Times,serif" font-size="14.00" fill="#000000">i += 1.0</text>
</g>
<!-- console.log(i)&#45;&gt;i += 1.0 -->
<g id="edge3" class="edge">
<title>console.log(i)-&gt;i += 1.0</title>
<path fill="none" stroke="#000000" d="M221.3201,-87.8314C218.1017,-79.8406 214.2516,-70.2819 210.6949,-61.4514"/>
<polygon fill="#000000" stroke="#000000" points="213.8359,-59.8816 206.8532,-51.9134 207.3428,-62.4969 213.8359,-59.8816"/>
</g>
<!-- j &gt; 4.0 -->
<g id="node6" class="node">
<title>j &gt; 4.0</title>
<ellipse fill="none" stroke="#000000" cx="405.6381" cy="-394" rx="36.1309" ry="18"/>
<text text-anchor="middle" x="405.6381" y="-389.8" font-family="Times,serif" font-size="14.00" fill="#000000">j &gt; 4.0</text>
</g>
<!-- i += 1.0&#45;&gt;j &gt; 4.0 -->
<g id="edge4" class="edge">
<title>i += 1.0-&gt;j &gt; 4.0</title>
<path fill="none" stroke="#000000" d="M182.9715,-50.6882C173.7493,-60.751 162.7493,-74.251 155.6381,-88 136.566,-124.8743 130.6381,-136.4855 130.6381,-178 130.6381,-250 130.6381,-250 130.6381,-250 130.6381,-290.2462 113.4942,-310.2853 140.6381,-340 169.5163,-371.6132 291.756,-385.5903 359.6682,-391.0147"/>
<polygon fill="#000000" stroke="#000000" points="359.4387,-394.5073 369.6775,-391.7836 359.975,-387.5278 359.4387,-394.5073"/>
</g>
<!-- console.log(j) -->
<g id="node7" class="node">
<title>console.log(j)</title>
<ellipse fill="none" stroke="#000000" cx="422.6381" cy="-322" rx="64.3056" ry="18"/>
<text text-anchor="middle" x="422.6381" y="-317.8" font-family="Times,serif" font-size="14.00" fill="#000000">console.log(j)</text>
</g>
<!-- j &gt; 4.0&#45;&gt;console.log(j) -->
<g id="edge9" class="edge">
<title>j &gt; 4.0-&gt;console.log(j)</title>
<path fill="none" stroke="#000000" d="M409.9279,-375.8314C411.746,-368.131 413.908,-358.9743 415.9286,-350.4166"/>
<polygon fill="#000000" stroke="#000000" points="419.3988,-350.95 418.2905,-340.4133 412.5862,-349.3414 419.3988,-350.95"/>
</g>
<!-- console.log(&#39;i = &#39; + i) -->
<g id="node10" class="node">
<title>console.log('i = ' + i)</title>
<ellipse fill="none" stroke="#000000" cx="243.6381" cy="-322" rx="94.1281" ry="18"/>
<text text-anchor="middle" x="243.6381" y="-317.8" font-family="Times,serif" font-size="14.00" fill="#000000">console.log('i = ' + i)</text>
</g>
<!-- j &gt; 4.0&#45;&gt;console.log(&#39;i = &#39; + i) -->
<g id="edge8" class="edge">
<title>j &gt; 4.0-&gt;console.log('i = ' + i)</title>
<path fill="none" stroke="#000000" d="M378.5229,-381.9488C354.4882,-371.2667 318.8692,-355.4361 290.2687,-342.7247"/>
<polygon fill="#000000" stroke="#000000" points="291.4249,-339.4085 280.8653,-338.5454 288.5819,-345.8052 291.4249,-339.4085"/>
</g>
<!-- j % 2.0 !== 0.0 -->
<g id="node8" class="node">
<title>j % 2.0 !== 0.0</title>
<ellipse fill="none" stroke="#000000" cx="425.6381" cy="-250" rx="69.8377" ry="18"/>
<text text-anchor="middle" x="425.6381" y="-245.8" font-family="Times,serif" font-size="14.00" fill="#000000">j % 2.0 !== 0.0</text>
</g>
<!-- console.log(j)&#45;&gt;j % 2.0 !== 0.0 -->
<g id="edge5" class="edge">
<title>console.log(j)-&gt;j % 2.0 !== 0.0</title>
<path fill="none" stroke="#000000" d="M423.3951,-303.8314C423.7159,-296.131 424.0975,-286.9743 424.454,-278.4166"/>
<polygon fill="#000000" stroke="#000000" points="427.9514,-278.5503 424.8709,-268.4133 420.9575,-278.2589 427.9514,-278.5503"/>
</g>
<!-- console.log(j + &#39; is odd.&#39;) -->
<g id="node9" class="node">
<title>console.log(j + ' is odd.')</title>
<ellipse fill="none" stroke="#000000" cx="462.6381" cy="-178" rx="109.0479" ry="18"/>
<text text-anchor="middle" x="462.6381" y="-173.8" font-family="Times,serif" font-size="14.00" fill="#000000">console.log(j + ' is odd.')</text>
</g>
<!-- j % 2.0 !== 0.0&#45;&gt;console.log(j + &#39; is odd.&#39;) -->
<g id="edge7" class="edge">
<title>j % 2.0 !== 0.0-&gt;console.log(j + ' is odd.')</title>
<path fill="none" stroke="#000000" d="M434.9747,-231.8314C439.0623,-223.8771 443.9484,-214.369 448.469,-205.5723"/>
<polygon fill="#000000" stroke="#000000" points="451.718,-206.9074 453.1757,-196.4133 445.4919,-203.7078 451.718,-206.9074"/>
</g>
<!-- console.log(j + &#39; is odd.&#39;)&#45;&gt;j &gt; 4.0 -->
<g id="edge6" class="edge">
<title>console.log(j + ' is odd.')-&gt;j &gt; 4.0</title>
<path fill="none" stroke="#000000" d="M481.6881,-196.1141C490.4951,-205.8115 500.0127,-218.5192 504.6381,-232 520.2698,-277.5593 521.9282,-299.6412 495.6381,-340 483.7809,-358.2024 463.4487,-371.1624 445.1066,-379.8151"/>
<polygon fill="#000000" stroke="#000000" points="443.4817,-376.7066 435.7517,-383.9522 446.3129,-383.1085 443.4817,-376.7066"/>
</g>
<!-- console.log(&#39;j = &#39; + j) -->
<g id="node11" class="node">
<title>console.log('j = ' + j)</title>
<ellipse fill="none" stroke="#000000" cx="243.6381" cy="-250" rx="94.1281" ry="18"/>
<text text-anchor="middle" x="243.6381" y="-245.8" font-family="Times,serif" font-size="14.00" fill="#000000">console.log('j = ' + j)</text>
</g>
<!-- console.log(&#39;i = &#39; + i)&#45;&gt;console.log(&#39;j = &#39; + j) -->
<g id="edge10" class="edge">
<title>console.log('i = ' + i)-&gt;console.log('j = ' + j)</title>
<path fill="none" stroke="#000000" d="M243.6381,-303.8314C243.6381,-296.131 243.6381,-286.9743 243.6381,-278.4166"/>
<polygon fill="#000000" stroke="#000000" points="247.1382,-278.4132 243.6381,-268.4133 240.1382,-278.4133 247.1382,-278.4132"/>
</g>
<!-- console.log(&#39;j = &#39; + j)&#45;&gt;i &lt; 4.0 -->
<g id="edge11" class="edge">
<title>console.log('j = ' + j)-&gt;i &lt; 4.0</title>
<path fill="none" stroke="#000000" d="M241.6193,-231.8314C240.7637,-224.131 239.7463,-214.9743 238.7955,-206.4166"/>
<polygon fill="#000000" stroke="#000000" points="242.267,-205.9656 237.684,-196.4133 235.3098,-206.7386 242.267,-205.9656"/>
</g>
</g>
</svg>